<svg width="202" height="202" fill="none" xmlns="http://www.w3.org/2000/svg"><g clip-path="url(#clip0)" fill="#fff"><path d="M101 18.659c-16.556 0-32.065 6.504-43.676 18.32l-.174.177a2.953 2.953 0 004.223 4.127l.168-.172c10.487-10.67 24.5-16.547 39.459-16.547 30.503 0 55.319 24.815 55.319 55.318 0 30.504-24.816 55.319-55.319 55.319-30.503 0-55.32-24.816-55.32-55.319a55.248 55.248 0 017.746-28.246 2.952 2.952 0 10-5.075-3.02 61.157 61.157 0 00-8.575 31.267c0 33.758 27.465 61.223 61.223 61.223 33.759 0 61.223-27.465 61.223-61.223 0-33.759-27.464-61.224-61.222-61.224z"/><path d="M175.777 67.596c-1.602-2.385-3.114-4.638-3.683-6.764-.606-2.269-.425-5.064-.233-8.024.286-4.414.583-8.98-1.673-12.876-2.289-3.958-6.426-5.99-10.427-7.955-2.63-1.291-5.115-2.511-6.73-4.126-1.614-1.616-2.835-4.1-4.127-6.73-1.964-4-3.996-8.137-7.954-10.427-3.897-2.255-8.462-1.959-12.877-1.673-2.959.192-5.754.374-8.024-.233-2.126-.568-4.378-2.081-6.763-3.683C109.723 2.712 105.685 0 101 0s-8.724 2.712-12.287 5.106c-2.385 1.601-4.637 3.114-6.763 3.682-2.27.607-5.065.425-8.024.233-4.415-.286-8.98-.582-12.877 1.673-3.958 2.29-5.99 6.426-7.954 10.426-1.292 2.631-2.512 5.116-4.127 6.73-1.615 1.616-4.1 2.836-6.73 4.127-4 1.965-8.137 3.997-10.427 7.955-2.255 3.897-1.959 8.462-1.672 12.877.192 2.959.373 5.754-.234 8.023-.568 2.126-2.08 4.379-3.683 6.764-2.392 3.563-5.105 7.602-5.105 12.286 0 4.685 2.712 8.724 5.105 12.287 1.602 2.385 3.115 4.638 3.683 6.764.606 2.269.425 5.064.233 8.024-.286 4.414-.583 8.979 1.673 12.876 2.29 3.958 6.426 5.99 10.427 7.954 2.63 1.292 5.115 2.512 6.73 4.127 1.497 1.498 2.655 3.745 3.845 6.16L31.37 177.523a5.446 5.446 0 00.071 5.366 5.448 5.448 0 004.616 2.738l16.444.398 9.278 13.583a5.443 5.443 0 004.807 2.385 5.447 5.447 0 004.542-2.859l22.516-41.422c2.266 1.186 4.707 2.053 7.356 2.053 2.648 0 5.089-.867 7.356-2.053l22.515 41.423a5.447 5.447 0 004.828 2.865c1.814 0 3.489-.88 4.521-2.392l9.278-13.583 16.444-.398a5.448 5.448 0 004.615-2.737 5.446 5.446 0 00.071-5.366l-7.841-14.426a2.952 2.952 0 00-5.188 2.819l7.514 13.824-15.974.386a5.496 5.496 0 00-4.396 2.39l-9.012 13.195-22.35-41.117c2.35-1.578 4.571-3.058 6.668-3.619 2.269-.606 5.065-.425 8.024-.233 4.415.287 8.98.583 12.877-1.672 2.063-1.194 3.6-2.891 4.879-4.807l5.275 9.704a2.952 2.952 0 105.187-2.82l-7.106-13.074c1.19-2.416 2.348-4.662 3.846-6.16 1.614-1.615 4.099-2.835 6.73-4.127 4-1.964 8.136-3.996 10.427-7.954 2.255-3.897 1.958-8.462 1.672-12.877-.192-2.959-.373-5.754.233-8.023.569-2.127 2.081-4.379 3.683-6.764 2.393-3.563 5.105-7.602 5.105-12.287.001-4.684-2.711-8.723-5.104-12.286zM66.268 195.712l-9.011-13.194a5.496 5.496 0 00-4.397-2.39l-15.974-.387 19.284-35.476c1.28 1.916 2.816 3.613 4.88 4.806 3.897 2.255 8.462 1.959 12.876 1.673 2.96-.192 5.755-.374 8.024.233 2.097.56 4.319 2.041 6.668 3.618l-22.35 41.117zM170.875 88.877c-1.801 2.682-3.663 5.455-4.485 8.531-.857 3.207-.636 6.625-.421 9.931.24 3.698.466 7.191-.891 9.537-1.392 2.406-4.563 3.963-7.919 5.612-2.947 1.447-5.995 2.943-8.302 5.251-2.308 2.308-3.805 5.356-5.252 8.303-1.649 3.357-3.206 6.527-5.611 7.919-2.347 1.357-5.839 1.13-9.538.891-3.306-.215-6.723-.436-9.93.421-3.076.822-5.849 2.684-8.531 4.485-3.141 2.11-6.109 4.103-8.995 4.103-2.886 0-5.853-1.993-8.995-4.103-2.682-1.8-5.454-3.663-8.531-4.485-1.76-.471-3.584-.616-5.418-.616-1.507 0-3.021.098-4.512.195-3.7.24-7.192.467-9.538-.891-2.406-1.392-3.963-4.562-5.611-7.919-1.447-2.947-2.944-5.995-5.252-8.303-2.308-2.307-5.355-3.804-8.302-5.251-3.357-1.649-6.527-3.206-7.92-5.612-1.357-2.346-1.13-5.839-.89-9.537.214-3.305.436-6.724-.422-9.93-.822-3.077-2.684-5.85-4.485-8.531-2.11-3.142-4.102-6.11-4.102-8.995 0-2.886 1.993-5.854 4.102-8.995 1.801-2.682 3.663-5.455 4.485-8.531.858-3.207.636-6.625.422-9.93-.24-3.699-.467-7.192.89-9.538 1.393-2.406 4.563-3.963 7.92-5.612 2.947-1.447 5.994-2.944 8.302-5.251 2.307-2.308 3.804-5.356 5.252-8.303 1.648-3.356 3.205-6.527 5.61-7.918 2.347-1.358 5.84-1.131 9.539-.892 3.305.215 6.723.437 9.93-.42 3.076-.823 5.849-2.685 8.53-4.486 3.142-2.11 6.11-4.103 8.996-4.103s5.853 1.993 8.995 4.103c2.681 1.8 5.454 3.663 8.531 4.485 3.207.857 6.625.635 9.931.42 3.698-.239 7.191-.465 9.537.892 2.405 1.392 3.963 4.562 5.611 7.919 1.447 2.947 2.944 5.994 5.252 8.302s5.355 3.805 8.302 5.252c3.357 1.648 6.527 3.206 7.919 5.61 1.357 2.347 1.131 5.84.891 9.538-.215 3.306-.436 6.724.421 9.93.822 3.077 2.684 5.85 4.485 8.532 2.11 3.141 4.103 6.109 4.103 8.995 0 2.886-1.993 5.854-4.103 8.995z"/><path d="M141.542 77.116a7.222 7.222 0 001.838-7.447 7.22 7.22 0 00-5.865-4.945l-20.022-2.91a1.36 1.36 0 01-1.024-.744l-8.954-18.142a7.221 7.221 0 00-6.515-4.05 7.22 7.22 0 00-6.515 4.05L85.531 61.07a1.36 1.36 0 01-1.024.745l-20.022 2.91a7.22 7.22 0 00-5.865 4.944 7.22 7.22 0 001.839 7.447l14.487 14.122c.322.313.468.763.392 1.205l-3.42 19.94a7.22 7.22 0 002.89 7.106 7.234 7.234 0 004.263 1.395 7.269 7.269 0 003.388-.842l17.907-9.415a1.364 1.364 0 011.267 0l17.908 9.415a7.222 7.222 0 007.651-.553 7.22 7.22 0 002.89-7.106l-3.42-19.94a1.36 1.36 0 01.391-1.204l14.489-14.123zm-20.699 16.325l3.42 19.941c.129.752-.336 1.181-.541 1.33-.206.15-.757.459-1.433.104l-17.908-9.415a7.264 7.264 0 00-6.762 0l-17.907 9.415a1.326 1.326 0 01-1.433-.104 1.325 1.325 0 01-.542-1.33l3.42-19.94a7.264 7.264 0 00-2.089-6.432L64.581 72.888a1.326 1.326 0 01-.345-1.394 1.325 1.325 0 011.099-.926l20.021-2.91a7.264 7.264 0 005.47-3.974l8.954-18.142c.338-.685.966-.758 1.22-.758.255 0 .883.073 1.221.758l8.954 18.142a7.262 7.262 0 005.47 3.975l20.022 2.909c.755.11 1.019.684 1.098.926.078.242.202.862-.344 1.394l-14.489 14.123a7.263 7.263 0 00-2.089 6.43z"/></g><defs><clipPath id="clip0"><path fill="#fff" d="M0 0h202v202H0z"/></clipPath></defs></svg>