<svg width="202" height="202" fill="none" xmlns="http://www.w3.org/2000/svg"><g clip-path="url(#clip0)" fill="#fff"><path d="M110.955 32.291a2.958 2.958 0 00-2.959-2.959h-31.79a2.958 2.958 0 00-2.958 2.96 2.958 2.958 0 002.959 2.958h31.789a2.958 2.958 0 002.959-2.959zm-34.748 6.555a2.959 2.959 0 100 5.918h17.766a2.958 2.958 0 002.959-2.96 2.958 2.958 0 00-2.96-2.958H76.208zM179.054 58.54c-4.796-3.087-10.916-2.532-15.079.955-7.585-5.914-16.962-2.755-20.355 3.52l-18.77 34.703-27.905 3.602 10.438-11.717c3.546-3.751 3.352-9.013 3.317-9.634a13.046 13.046 0 00-6.681-10.535 13.039 13.039 0 00-12.472-.148l-20.493 10.8c-8.35 4.4-15.143 11.537-19.128 20.095L39.58 126.692l-18.037 17.663a15.133 15.133 0 00-4.576 10.764 15.136 15.136 0 004.4 10.838 2.958 2.958 0 004.209-4.162 9.26 9.26 0 01-2.693-6.628 9.264 9.264 0 012.799-6.584l16.438-16.095 39.654 35.688a9.214 9.214 0 013.084 6.775 9.221 9.221 0 01-2.86 6.871L69.84 193.507c-3.653 3.509-9.521 3.435-13.083-.168l-22.14-22.397a2.96 2.96 0 00-4.209 4.161l22.14 22.397c2.962 2.996 6.898 4.5 10.84 4.5 3.807 0 7.619-1.405 10.553-4.225l12.158-11.684c3.042-2.923 4.677-7.018 4.677-11.238 0-8.317-6.782-12.641-6.782-12.641l65.892-32.695a29.038 29.038 0 0013.02-13.014l20.658-41.587a12.722 12.722 0 00-4.51-16.376zm-30.228 7.29c1.866-3.45 7.459-5.392 11.466-1.674l-16.13 24.938a17.147 17.147 0 01-12.076 7.686l16.74-30.95zm29.44 6.45l-20.66 41.589a23.086 23.086 0 01-10.349 10.345L79.262 157.95l-33.62-30.257 11.648-25.014a37.753 37.753 0 0116.523-17.357l20.492-10.8c2.186-1.152 4.675-1.123 6.832.081 2.156 1.202 3.489 3.306 3.656 5.738.003.032.103 3.298-1.726 5.212-.025.024-.048.05-.071.075L87.255 103.3a2.959 2.959 0 002.587 4.904l42.85-5.531a23.063 23.063 0 0016.441-10.365l17.308-26.762c2.036-3.149 6.257-4.058 9.41-2.03a6.812 6.812 0 012.415 8.765z"/><path d="M64.914 187.639c5.818 0 10.553-4.735 10.553-10.553 0-5.817-4.735-10.552-10.553-10.552-5.817 0-10.55 4.735-10.55 10.552 0 5.818 4.733 10.553 10.55 10.553zm0-15.187a4.64 4.64 0 014.635 4.634 4.64 4.64 0 01-4.635 4.635 4.64 4.64 0 01-4.632-4.635 4.64 4.64 0 014.632-4.634zm11.05-116.99h57.568c7.724 0 14.009-6.285 14.009-14.009V26.64a2.958 2.958 0 00-2.959-2.959 2.958 2.958 0 00-2.959 2.959v14.813c0 4.462-3.63 8.091-8.091 8.091H75.964c-4.461 0-8.09-3.63-8.09-8.09V14.01c0-4.463 3.629-8.09 8.09-8.09h57.568c4.461 0 8.091 3.629 8.091 8.09a2.959 2.959 0 105.918 0c0-7.725-6.285-14.01-14.009-14.01H75.964C68.24 0 61.956 6.285 61.956 14.01v27.443c0 7.724 6.283 14.01 14.008 14.01z"/><path d="M81.862 25.28a6.13 6.13 0 006.125-6.124v-4.453a6.131 6.131 0 00-6.124-6.125H77.41a6.131 6.131 0 00-6.124 6.125v4.453a6.13 6.13 0 006.124 6.123h4.453zm-4.657-6.124v-4.453c0-.115.091-.207.205-.207h4.454c.112 0 .205.092.205.207v4.453a.206.206 0 01-.205.205H77.41a.205.205 0 01-.205-.205z"/></g><defs><clipPath id="clip0"><path fill="#fff" d="M0 0h202v202H0z"/></clipPath></defs></svg>