<svg width="202" height="202" fill="none" xmlns="http://www.w3.org/2000/svg"><path d="M181.358 133.691a34.939 34.939 0 00-32.624-34.82v-56.13a2.765 2.765 0 00-.81-1.953l-22.225-22.224a2.76 2.76 0 00-1.952-.81H23.404a2.76 2.76 0 00-2.762 2.762v160.968a2.758 2.758 0 002.762 2.762h122.573a2.757 2.757 0 002.552-1.705c.138-.335.21-.694.209-1.057v-12.973a34.942 34.942 0 0032.62-34.82zM126.509 27.183l12.795 12.796h-12.795V27.183zM26.165 178.723V23.277h94.821V42.74a2.758 2.758 0 002.761 2.762h19.463v53.446a34.894 34.894 0 00-22.56 58.251 34.898 34.898 0 0022.56 11.241v10.286l-117.044-.003zm120.285-15.654a29.377 29.377 0 01-5.723-58.192 29.38 29.38 0 0135.108 28.814 29.413 29.413 0 01-29.385 29.378z" fill="#fff"/><path d="M160.609 120.326a2.764 2.764 0 00-3.827.77l-14.295 21.502-8.155-8.615a2.757 2.757 0 00-1.949-.952 2.759 2.759 0 00-2.672 1.656 2.76 2.76 0 00.608 3.083l10.54 11.147a2.747 2.747 0 002.006.864c.078 0 .157 0 .236-.011a2.757 2.757 0 002.063-1.221l16.217-24.393a2.76 2.76 0 00-.772-3.83zm-56.983-9.188H45.898a2.761 2.761 0 000 5.523h57.728a2.761 2.761 0 100-5.523zm-57.728 22.083h34.587a2.762 2.762 0 000-5.524H45.898a2.761 2.761 0 000 5.524zm57.728 11.035H45.898a2.761 2.761 0 000 5.524h57.728a2.761 2.761 0 100-5.524zm-23.141 16.555H45.898a2.761 2.761 0 000 5.523h34.587a2.762 2.762 0 000-5.523zM45.898 98.238h77.849a2.758 2.758 0 002.762-2.761V56.099a2.76 2.76 0 00-2.762-2.761H45.898a2.76 2.76 0 00-2.761 2.761v39.378a2.76 2.76 0 002.761 2.761zm2.762-39.374h72.326v33.85H48.66v-33.85z" fill="#fff"/></svg>