<svg width="248" height="72" fill="none" xmlns="http://www.w3.org/2000/svg"><path d="M70.722 26.546V44h3.034V31.983h.162l4.823 11.966h2.267l4.824-11.94h.162V44h3.034V26.546H85.16l-5.182 12.647h-.204L74.59 26.546h-3.87zm21.741 0V44h2.813l8.224-11.89h.145V44h3.162V26.546h-2.83l-8.216 11.897h-.153V26.546h-3.145zM110.261 44h3.162v-5.898h3.34c4.032 0 6.197-2.42 6.197-5.778 0-3.332-2.14-5.778-6.154-5.778h-6.545V44zm3.162-8.497v-6.316h2.897c2.37 0 3.418 1.279 3.418 3.137s-1.048 3.179-3.401 3.179h-2.914zm24.33 8.736c3.733 0 6.452-2.14 6.443-5.088.009-2.182-1.355-3.75-3.801-4.1v-.136c1.892-.41 3.162-1.816 3.153-3.776.009-2.659-2.258-4.832-5.744-4.832-3.392 0-6.017 2.02-6.085 4.943h3.042c.051-1.466 1.415-2.378 3.026-2.378 1.628 0 2.71.989 2.702 2.455.008 1.525-1.253 2.54-3.06 2.54h-1.543v2.437h1.543c2.207 0 3.52 1.108 3.511 2.685.009 1.542-1.329 2.6-3.196 2.6-1.755 0-3.11-.913-3.187-2.336h-3.205c.086 2.949 2.719 4.986 6.401 4.986zm11.78-.239l1.441-4.304h6.562L158.985 44h3.375l-6.153-17.454h-3.904L146.158 44h3.375zm2.293-6.844l2.361-7.031h.136l2.361 7.031h-4.858zM164.659 44h6.529c4.005 0 6.409-2.224 6.409-5.438 0-3.204-2.404-5.275-6.409-5.275h-3.367v-4.091h8.063v-2.65h-11.225V44zm3.162-2.59v-5.55h3.367c2.113 0 3.281 1.194 3.281 2.668 0 1.535-1.168 2.881-3.281 2.881h-3.367zm28.138-6.137c0-5.642-3.443-8.966-8.02-8.966-4.585 0-8.02 3.324-8.02 8.966 0 5.633 3.435 8.966 8.02 8.966 4.577 0 8.02-3.324 8.02-8.966zm-3.179 0c0 3.971-1.994 6.128-4.841 6.128-2.838 0-4.841-2.157-4.841-6.128 0-3.972 2.003-6.128 4.841-6.128 2.847 0 4.841 2.156 4.841 6.128zM198.948 44h3.162v-5.898h3.341c4.031 0 6.196-2.42 6.196-5.778 0-3.332-2.139-5.778-6.153-5.778h-6.546V44zm3.162-8.497v-6.316h2.898c2.369 0 3.417 1.279 3.417 3.137s-1.048 3.179-3.4 3.179h-2.915zm27.88-.23c0-5.642-3.443-8.966-8.02-8.966-4.585 0-8.02 3.324-8.02 8.966 0 5.633 3.435 8.966 8.02 8.966 4.577 0 8.02-3.324 8.02-8.966zm-3.179 0c0 3.971-1.994 6.128-4.841 6.128-2.838 0-4.841-2.157-4.841-6.128 0-3.972 2.003-6.128 4.841-6.128 2.847 0 4.841 2.156 4.841 6.128zM232.979 44h7.066c3.997 0 5.957-2.037 5.957-4.756 0-2.642-1.875-4.193-3.733-4.287v-.17c1.705-.4 3.051-1.594 3.051-3.716 0-2.6-1.875-4.526-5.659-4.526h-6.682V44zm3.162-2.642v-5.114h3.486c1.952 0 3.162 1.194 3.162 2.753 0 1.39-.954 2.361-3.247 2.361h-3.401zm0-7.39v-4.815h3.196c1.858 0 2.821.98 2.821 2.327 0 1.534-1.244 2.489-2.889 2.489h-3.128z" fill="#2B1823"/><path d="M8 38.9l-6-1v-15l29.5 15 26-15 .5 32-26.5 14.5L2 55.4l6-2.5-6 2V38.4l6 1 22.5 11.5v4l-22-10.5-.5 8.5 23.5 11.5 23.5-13V29.175L31.5 41.9 8 31.4v7.5z" fill="#9D331F"/><path d="M8 52.9l-6 2.5 29.5 14L58 54.9l-.5-32-26 15L2 22.9v15l6 1v-7.5l23.5 10.5L55 29.175V51.4l-23.5 13L8 52.9zm0 0l-6 2V38.4l6 1 22.5 11.5v4l-22-10.5-.5 8.5z" stroke="#9D331F"/><path d="M56.514 17.571l-6.628 4.143L30 9.286 10.114 21.714 3.486 18.4 30 1l7.457 4.971V1h7.457v9.114l11.6 7.457z" fill="#9D331F" stroke="#2A1823" stroke-width="2" stroke-linejoin="round"/><path d="M1 55.686v-34.8L31.5 36.4 59 20.886v34.8L31.657 70.6 1 55.686z" stroke="#2A1823" stroke-width="2" stroke-linejoin="round"/><path d="M29.314 21.714V18.4H26v3.314h3.314zM26 27.514h3.314V24.2H26v3.314zm9.114 0H31.8V24.2h3.314v3.314zM31.8 18.4v3.314h3.314V18.4H31.8z" stroke="#2A1823" stroke-width="1.6" stroke-linejoin="round"/></svg>