<svg width="30" height="24" fill="none" xmlns="http://www.w3.org/2000/svg"><path d="M4.737 0h20.526a4.71 4.71 0 013.35 1.406A4.833 4.833 0 0130 4.8v14.4c0 1.273-.5 2.494-1.387 3.394A4.705 4.705 0 0125.263 24H4.737a4.705 4.705 0 01-3.35-1.406A4.833 4.833 0 010 19.2V4.8c0-1.273.5-2.494 1.387-3.394A4.705 4.705 0 014.737 0zm0 1.6c-.77 0-1.478.28-2.026.746L15 10.432l12.289-8.086a3.12 3.12 0 00-2.026-.746H4.737zM15 12.34L1.79 3.647A3.23 3.23 0 001.58 4.8v14.4c0 .849.333 1.663.925 2.263.592.6 1.395.937 2.233.937h20.526c.838 0 1.64-.337 2.233-.937.592-.6.925-1.414.925-2.263V4.8a3.19 3.19 0 00-.212-1.152L15 12.338v.001z" fill="#8D230F"/></svg>