<svg width="25" height="25" fill="none" xmlns="http://www.w3.org/2000/svg"><path d="M23.026 25A1.976 1.976 0 0025 23.026v-4.605a1.976 1.976 0 00-1.974-1.974 14.32 14.32 0 01-4.5-.72 2.004 2.004 0 00-2.004.478L14.628 18.1a19.283 19.283 0 01-7.744-7.74l1.88-1.892c.541-.502.736-1.267.504-2.002a14.305 14.305 0 01-.715-4.492A1.976 1.976 0 006.579 0H1.974A1.976 1.976 0 000 1.974C0 14.67 10.329 25 23.026 25zM1.974 1.316h4.605a.658.658 0 01.658.658c0 1.68.263 3.33.78 4.894a.622.622 0 01-.167.654L5.276 10.11c2.154 4.248 5.336 7.43 9.603 9.601l2.564-2.565a.679.679 0 01.68-.166 15.57 15.57 0 004.903.784.66.66 0 01.658.658v4.605a.66.66 0 01-.658.658c-11.97 0-21.71-9.74-21.71-21.71a.658.658 0 01.658-.658z" fill="#8D230F"/></svg>