<svg width="24" height="24" fill="none" xmlns="http://www.w3.org/2000/svg"><path d="M1.118 12.815l.08-.137 4.875-8.23a.161.161 0 01.292.022c.815 1.97 1.517 4.42 1.188 5.945-.14.627-.525 1.477-.958 2.263a4.232 4.232 0 01-.183.334.163.163 0 01-.139.079H1.26c-.135 0-.214-.158-.142-.276z" fill="#fff"/><path d="M24 15.34v1.393c0 .08-.044.151-.108.183-.392.186-1.734.87-2.292 1.733C20.176 20.85 19.088 24 16.656 24H6.51C2.914 24 0 20.751 0 16.742v-.129c0-.106.078-.193.174-.193H5.83c.112 0 .194.116.184.238-.04.409.028.826.202 1.206.336.758 1.032 1.232 1.784 1.232h2.8v-2.43H8.032c-.142 0-.226-.182-.144-.31.03-.052.064-.105.1-.165a22.91 22.91 0 001.008-1.786c.254-.494.5-1.02.698-1.55.04-.095.072-.193.104-.288.054-.17.11-.327.15-.485.04-.133.072-.273.104-.404.094-.45.134-.925.134-1.418 0-.193-.008-.396-.024-.589a8.458 8.458 0 00-.056-.633 7.248 7.248 0 00-.078-.565c-.04-.282-.096-.562-.16-.844l-.022-.107c-.048-.193-.088-.378-.144-.57A23.245 23.245 0 009.17 5.2c-.07-.22-.15-.431-.23-.642-.118-.318-.238-.607-.348-.88a12.939 12.939 0 01-.152-.354c-.054-.13-.11-.262-.166-.386-.04-.096-.086-.185-.118-.274l-.342-.702c-.048-.095.032-.209.126-.18l2.14.645h.006l.008.002.282.087.31.097.114.036V1.236C10.8.553 11.292 0 11.9 0c.304 0 .58.138.778.362.198.225.322.531.322.874v2.097l.228.071a.176.176 0 01.052.03l.238.2c.08.07.166.157.27.246.206.184.452.422.722.696.072.068.142.14.206.21.348.36.738.783 1.11 1.25.104.13.206.264.31.404.104.142.214.282.31.422.126.187.262.38.38.582.056.096.12.194.174.29.152.255.286.52.414.784.054.122.11.255.158.386.142.354.254.714.326 1.074.022.078.038.162.046.238v.017c.024.107.032.22.04.336a3.98 3.98 0 01-.174 1.573c-.048.151-.096.31-.158.458-.12.309-.262.618-.43.907-.054.106-.118.22-.182.326-.07.114-.142.22-.206.325a6.771 6.771 0 01-.278.398 4.178 4.178 0 01-.27.377c-.134.176-.262.343-.396.503-.08.104-.166.21-.254.306-.086.107-.174.202-.254.291-.134.15-.246.265-.34.36l-.22.225a.17.17 0 01-.118.049H13v2.429h2.144c.48 0 .936-.19 1.304-.536.126-.122.676-.651 1.326-1.449a.164.164 0 01.082-.055l5.922-1.903c.11-.035.222.058.222.187z" fill="#fff"/></svg>